<svg width="275" height="43" viewBox="0 0 275 43" fill="none" xmlns="http://www.w3.org/2000/svg">
<path fill-rule="evenodd" clip-rule="evenodd" d="M63.6392 13.6468C63.6392 13.5317 63.6744 13.4182 63.7112 13.3015C63.8567 12.5299 63.8567 11.7354 63.7112 10.9638C63.241 8.66494 61.4307 6.40341 59.0415 4.33475C54.3718 2.07321 49.63 1.7668 43.5115 2.80113C42.9326 2.91623 42.2816 3.03133 41.666 3.14643L42.1362 1H27.6568C27.5113 1.95812 27.1131 3.29886 26.9691 4.25698C17.521 4.83248 9.73763 6.36453 0 8.85471L2.09976 13.7215C11.185 10.9249 18.7876 9.2 25.5203 9.35243L24.7592 12.6483C16.0354 13.3762 10.894 14.1057 3.32963 16.5959L6.26253 20.5046C12.2003 18.5494 18.5701 16.7872 23.6748 17.3238L23.0958 20.3132C17.7017 20.083 13.1775 21.5016 8.39902 23.2623C9.59216 24.6808 9.99184 25.9842 11.185 27.44C14.3353 26.6732 18.0279 25.1396 22.1907 25.3325L18.9683 41.045H33.8473L34.4263 37.7102C37.033 39.7011 39.9997 40.6593 43.513 41.311C44.7796 41.58 45.8287 41.8958 47.5318 42C55.0168 41.6905 59.0062 38.5144 61.2867 33.4158C63.097 28.7808 62.0478 24.4895 58.1363 20.503C61.0692 18.7439 63.241 16.7125 63.6392 13.6468ZM43.5115 32.8061C41.7012 33.9555 39.096 34.1095 35.7649 33.1498L37.6472 23.0352C40.2186 23.1487 42.1729 23.7242 43.5115 24.7585C45.0323 25.908 45.792 27.6702 45.8287 29.9706C45.2865 31.2336 44.5254 32.1544 43.5115 32.8061ZM47.7478 13.5318C46.6251 15.2178 45.2131 16.3283 43.513 16.9038C42.2096 17.3253 40.7608 17.4404 39.1327 17.2102L40.9416 7.97591C41.9202 8.01324 42.7518 8.09101 43.513 8.20611C47.0601 8.81893 48.4722 10.5812 47.7478 13.5318ZM259.807 23.9933C259.118 23.494 258.139 23.1876 256.837 23.1487L255.895 28.2846C257.563 28.7823 258.865 28.7061 259.807 28.0933C260.312 27.7869 260.711 27.2876 261 26.6748C260.965 25.4865 260.602 24.6061 259.807 23.9933Z" fill="#33348E"/>
<path fill-rule="evenodd" clip-rule="evenodd" d="M259.928 0.591989C258.4 0.194586 256.834 -0.0041005 255.263 6.41309e-05C244.385 6.41309e-05 235.531 9.65657 235.531 21.5208C235.531 33.3051 244.385 43 255.263 43C256.853 43 258.443 42.8048 259.928 42.4097C268.565 40.0851 275 31.5725 275 21.5208C275.001 11.4292 268.565 2.91653 259.928 0.591989ZM268.926 28.6144C267.805 31.2941 265.673 32.7532 261.915 33.1083C261.229 32.9899 260.579 32.8715 259.928 32.7532C258.157 32.3964 256.639 31.8844 255.301 30.8606L255.012 32.6332H247.459L249.121 24.4341C246.989 24.3557 245.147 25.1044 243.556 25.538C242.94 24.7493 242.723 24.0389 242.11 23.3302C244.569 22.4247 246.809 21.7144 249.554 21.7544L249.843 20.217C247.278 19.9418 244.061 20.8489 241.061 21.9128L239.579 19.8634C243.41 18.5644 246.012 18.1692 250.422 17.814L250.82 16.0798C247.387 16.0014 243.556 16.8686 238.966 18.366L237.88 15.8431C242.831 14.5424 246.772 13.7153 251.58 13.4001C251.652 12.8882 251.832 12.2179 251.904 11.7043H259.243L258.991 12.8482C259.315 12.7682 259.64 12.6898 259.931 12.6498C263.04 12.0979 265.424 12.2947 267.808 13.4385C269.507 14.976 270.593 16.6718 270.123 18.286C269.906 19.9018 268.857 20.9657 267.339 21.9128C269.325 24.0021 269.831 26.2099 268.926 28.6144ZM208.854 15.3711C204.41 9.49978 198.157 10.8004 189.265 15.6479L189.698 13.165H175.603L172.602 29.4831C169.313 32.7148 167.903 32.7932 168.553 29.8767L171.59 13.165H157.131L153.987 28.616C153.518 30.9806 149.216 32.9899 149.866 29.8767L153.01 13.165H138.518L134.794 30.467C131.685 32.5164 129.734 33.1083 130.205 30.5854L132.445 18.0908C125.035 18.1692 121.349 18.9195 119.794 13.1634H109.819L106.458 30.307C105.374 32.0028 103.819 33.3035 102.337 31.2541L105.698 13.1634H91.0236C90.8432 13.9905 90.8432 14.0705 90.6994 14.8976C88.2772 13.8721 86.4344 12.8882 84.266 12.4147C83.2185 12.2179 82.0609 12.1395 80.7243 12.2179C76.0603 12.8882 71.9406 15.0944 68.3989 19.0763C65.8681 22.6631 64.7839 26.1699 64.1339 30.979C64.092 31.1732 64.0679 31.3715 64.062 31.5709C63.9598 32.4233 63.9841 33.2882 64.1339 34.1322C64.6401 37.1671 66.6647 40.1235 71.3625 42.0945C73.4943 43 80.2901 42.4097 84.266 39.6516C84.8614 39.2415 85.4075 38.7519 85.8916 38.1941C87.2663 41.2674 89.8323 42.3713 94.7839 42.608C100.16 42.2897 105.121 39.3764 109.169 35.7512C111.663 32.518 111.41 30.8638 113.073 27.7505C115.278 24.7157 115.928 25.7012 116.326 27.9089C115.748 31.5741 115.133 34.7273 114.555 38.1957C115.096 40.9554 117.808 42.4929 121.675 42.728C126.445 42.4529 129.156 41.269 132.88 39.1796C138.266 43.9103 144.986 44.2255 151.856 39.1796C156.951 44.0271 163.022 43.7119 170.215 39.5364L169.783 41.6258H184.674L187.674 25.8211C190.783 20.9721 192.299 20.5001 192.156 24.4405L188.829 41.6258H203.145L206.612 25.1908C209.83 21.604 211.278 21.3288 210.987 24.3621L207.95 41.6258H222.045C222.045 41.6258 226.564 16.5198 226.672 16.1246C226.892 14.584 225.083 7.21204 208.854 15.3711ZM89.6137 25.698C89.3247 28.3377 86.6853 30.939 84.2645 31.4909C83.8669 31.5709 83.4693 31.6093 83.1084 31.5709C80.469 31.3341 78.4825 29.1664 78.952 25.698C79.3129 22.7415 81.9509 20.377 84.2645 19.6666C84.734 19.5483 85.1683 19.4699 85.6026 19.4699C88.0248 19.4699 89.9394 22.6231 89.6137 25.698Z" fill="#33348E"/>
<path fill-rule="evenodd" clip-rule="evenodd" d="M259.982 15.1615C259.594 15.084 259.204 15.0301 258.813 15L258 19.9423C258.663 20.0561 259.337 20.0012 259.982 19.7809C260.759 19.4595 261.41 18.8576 261.93 17.9736C262.222 16.4077 261.604 15.4828 259.982 15.1615Z" fill="#33348E"/>
</svg>
