<svg width="280" height="84" viewBox="0 0 280 84" fill="none" xmlns="http://www.w3.org/2000/svg">
<g clip-path="url(#clip0_108_452)">
<path d="M0.00585938 0V84H279.994V0H0.00585938Z" fill="#FF9900"/>
<path d="M248.402 37.5232C248.212 36.9348 247.926 36.2707 247.704 35.9387C247.704 35.9387 247.831 35.8357 248.085 35.9639C248.338 36.0922 249.957 36.9862 249.957 36.9862C250.782 37.9582 251.29 41.9465 251.321 43.3786C250.559 43.0971 249.481 42.6117 248.781 42.0737L248.402 37.5232ZM243.514 33.815C242.179 32.6393 241.07 31.5392 239.99 30.2365C240.689 29.1615 241.197 26.3235 240.879 25.2246C240.753 24.8914 239.609 23.6643 239.418 23.4857C239.133 23.2556 238.213 22.4118 237.768 22.4118C237.673 22.4118 237.578 22.4382 237.545 22.4635L237.673 23.4091C236.435 24.0479 234.817 24.9178 233.356 25.7868C233.356 26.1188 233.387 26.6294 233.42 26.8102C233.642 26.9626 233.896 27.0908 234.182 27.1686C234.753 27.0908 236.531 26.7324 237.006 26.7838L235.262 28.9063L233.261 30.0569L230.754 29.4183C230.595 29.3919 230.436 29.4183 230.341 29.5202L228.501 31.1321C228.405 31.2076 228.342 31.2843 228.342 31.463L228.278 33.2799C228.278 33.2799 228.246 33.5603 228.246 33.8671C228.246 35.1711 228.975 35.7845 228.975 35.7845L230.183 34.3777C230.022 34.1739 229.737 33.6117 229.673 33.3565C229.673 33.3049 229.706 31.7962 229.706 31.7962L230.881 31.1046L233.991 32.8701C233.991 32.8701 234.848 34.1487 235.674 34.9158C236.213 35.4527 238.91 36.91 240.212 37.5236C240.34 38.0869 240.625 39.0062 240.847 39.4915L244.657 42.6374L242.403 44.9123C241.61 45.3221 240.847 46.0638 240.911 46.7542H243.514L243.8 45.5521L246.911 42.7657C247.07 42.6124 247.07 42.5346 246.975 42.3045L246.085 39.9015C246.53 39.4917 247.481 38.4706 247.481 37.2423C247.48 35.017 244.466 34.455 243.514 33.815ZM229.484 29.2382C229.388 29.2645 227.072 29.7751 227.072 29.7751C227.072 29.7751 225.992 30.1083 225.516 30.3634C225.04 30.62 224.499 31.0537 224.468 31.2838L226.53 31.6673C226.849 31.3855 227.198 31.0801 227.515 30.8738L227.991 30.6964L229.705 29.2893C229.705 29.2896 229.641 29.2129 229.484 29.2382ZM239.228 43.609L242.148 41.3593L243.355 42.3302L240.212 44.478C239.959 44.7331 239.768 45.1429 239.609 45.3983H237.293C237.42 44.7079 238.625 43.8389 239.228 43.609ZM254.75 48.3642H223.738V47.5457H254.75V48.3642ZM167.84 36.653C167.84 35.1202 167.236 33.9169 165.587 33.9169C163.934 33.9169 163.268 35.12 163.268 36.653V46.7538H165.207V48.3644H154.604V46.7538H156.57V32.8442H154.604V31.2838H162.951V33.8917H163.046C163.839 32.4607 165.681 30.9529 168.634 30.9529C171.745 30.9529 173.648 32.4858 174.252 34.5053C174.475 35.2987 174.538 36.6026 174.538 37.2666V46.7538H177.076V48.3644H167.84V36.653ZM124.766 36.653C124.766 35.1202 124.163 33.9169 122.513 33.9169C120.862 33.9169 120.195 35.12 120.195 36.653V46.7538H122.132V48.3644H111.53V46.7538H113.498V32.8442H111.53V31.2838H119.878V33.8917H119.972C120.767 32.4607 122.608 30.9529 125.56 30.9529C128.671 30.9529 130.575 32.4858 131.177 34.5053C131.401 35.2987 131.464 36.6026 131.464 37.2666V46.7538H134.004V48.3644H124.765V36.653H124.766ZM186.06 32.8442V45.4748C186.06 46.3449 186.759 46.55 187.424 46.55C188.059 46.55 188.665 46.3712 188.665 46.3712V47.9293C188.665 47.9293 187.393 48.5695 184.569 48.5695C181.268 48.5695 179.331 47.2643 179.331 44.503V32.8444H177.077V31.6927C179.584 30.083 182.505 28.24 184.822 26.6819H186.06V31.2841H189.298V32.8444H186.06V32.8442ZM53.7583 22.4116C53.7583 22.4116 58.87 26.5273 61.2177 28.6496V30.2616C59.0292 28.3944 54.4889 26.8339 50.2667 26.8339C40.7126 26.8339 34.713 32.639 34.713 39.824C34.713 46.9826 40.3945 52.7877 50.2667 52.7877C55.1865 52.7877 59.123 50.9206 61.3128 49.0043V50.5372C58.3286 53.8364 52.8702 55.9842 46.0776 55.9842C33.9186 55.9842 25.54 48.8761 25.54 39.8242C25.54 30.7735 34.8412 23.6893 46.0776 23.6893C48.9354 23.6893 51.506 24.0727 53.7586 24.7127V22.4116H53.7583ZM151.398 43.8137C150.444 44.7079 148.954 45.3981 146.731 45.3981C144.794 45.3981 141.811 44.5282 141.685 40.5658H153.016C153.048 40.259 153.079 39.6443 153.079 39.3373C153.079 34.5314 150.636 30.9529 144.255 30.9529C137.844 30.9529 134.573 34.9151 134.573 39.8504C134.573 44.7843 137.844 48.6709 144.255 48.6709C148.382 48.6709 150.984 47.1117 152.509 44.656L151.398 43.8137ZM141.685 38.9036C141.685 34.4034 142.13 32.7159 144.033 32.7159C145.971 32.7159 146.352 34.3518 146.413 38.9036H141.685ZM48.2358 39.7726C48.2358 34.5569 48.8383 32.2558 51.0281 32.2558C53.218 32.2558 53.8218 34.5569 53.8218 39.7726C53.8218 44.9897 53.218 47.2894 51.0281 47.2894C48.8383 47.2894 48.2358 44.9897 48.2358 39.7726ZM40.3631 39.8242C40.3631 44.9897 44.2979 49.1831 51.0284 49.1831C57.7572 49.1831 61.6937 44.9897 61.6937 39.8242C61.6937 34.6588 57.7572 30.4667 51.0284 30.4667C44.2979 30.4665 40.3631 34.6588 40.3631 39.8242ZM76.7073 36.653C76.7073 35.1202 76.1049 33.9169 74.4548 33.9169C72.805 33.9169 72.137 35.1202 72.137 36.653V46.7538H74.0739V48.3644H63.4714V46.7538H65.4396V32.8444H63.4714V31.2841H71.82V33.8919H71.9151C72.7081 32.461 74.5499 30.9531 77.5014 30.9531C80.6122 30.9531 82.5177 32.486 83.1191 34.5055C83.3407 35.299 83.4048 36.6028 83.4048 37.2669V46.754H85.9458V48.3646H76.7073V36.653ZM100.419 26.7574C100.419 28.2662 102.102 29.2645 104.515 29.2645C106.927 29.2645 108.609 28.2662 108.609 26.7574C108.609 25.2508 106.927 24.2526 104.515 24.2526C102.102 24.2526 100.419 25.2508 100.419 26.7574ZM94.9282 32.8444V45.4748C94.9282 46.3449 95.6261 46.55 96.2937 46.55C96.9275 46.55 97.53 46.3712 97.53 46.3712V47.9293C97.53 47.9293 96.2624 48.5695 93.4374 48.5695C90.1363 48.5695 88.1992 47.2643 88.1992 44.5032V32.8444H85.9452V31.6927C88.4535 30.083 91.3737 28.24 93.6886 26.6819H94.928V31.2841H97.53V32.8444H94.9282ZM218.756 46.7538H221.358V48.3644H212.057V26.5273H209.74V24.9692H218.756V46.7538H218.756ZM200.851 39.9009C200.661 39.7473 200.248 39.5427 199.391 39.5427C197.392 39.5427 196.948 41.1294 196.948 42.7652C196.948 44.3761 197.55 45.6801 199.264 45.6801C200.09 45.6801 200.599 45.3983 200.851 45.1682V39.9009ZM201.139 46.3187H201.042C199.804 47.7244 198.154 48.6712 195.615 48.6712C192.154 48.6712 189.996 46.2935 189.996 43.4555C189.996 40.0291 193.011 37.855 197.836 37.855C199.804 37.855 200.851 38.2145 200.851 38.2145V37.1386C200.851 35.0688 199.264 33.9685 196.948 33.9685C193.74 33.9685 192.092 35.9639 192.092 35.9639L190.916 34.8134C193.043 32.1528 196.311 30.9531 199.359 30.9531C204.504 30.9531 207.549 33.4064 207.549 37.1386V46.7538H209.706V48.3644H201.139V46.3187ZM99.1817 48.3642V46.7535H101.119V32.8442H99.1817V31.2838H107.816V46.7535H109.784V48.3642" fill="black"/>
</g>
<defs>
<clipPath id="clip0_108_452">
<rect width="280" height="84" fill="white"/>
</clipPath>
</defs>
</svg>
