<svg width="280" height="60" viewBox="0 0 280 60" fill="none" xmlns="http://www.w3.org/2000/svg">
<path fill-rule="evenodd" clip-rule="evenodd" d="M82.3989 15.1996C74.8173 15.0396 67.7974 21.7592 66.253 31.0386C64.4278 40.318 69.6226 48.1576 78.3273 47.9976C87.1724 47.6776 93.9115 43.8378 96.0175 31.6786C97.9831 20.957 90.542 15.3596 82.3989 15.1996ZM84.7856 25.279C83.8028 30.0787 82.8201 35.0384 81.4161 39.8381C80.9949 41.758 79.8717 43.9978 78.1869 43.6801C76.7829 43.3579 76.7829 40.8002 76.9233 38.8804C77.7657 33.7584 79.0293 28.641 80.4333 23.6813C81.1353 21.2814 81.8373 19.1993 83.6625 19.3615C86.0492 19.6793 85.0664 23.3591 84.7856 25.279ZM50.388 15.1996C42.6661 15.0396 35.7865 21.7592 34.0998 31.0386C32.415 40.318 37.4713 48.1576 46.3145 47.9976C55.0192 47.6776 62.0391 43.8378 64.0047 31.6786C65.9722 20.957 58.3907 15.3596 50.388 15.1996ZM52.7748 25.279C51.792 30.0787 50.6688 35.0384 49.4052 39.8381C48.984 41.758 47.8608 43.9978 46.0356 43.6801C44.6316 43.3579 44.6316 40.8002 45.0528 38.8804C45.7548 33.7584 47.0184 28.641 48.282 23.6813C49.2648 21.2814 49.686 19.1993 51.5112 19.3615C54.0383 19.6793 53.0556 23.3591 52.7748 25.279ZM17.8155 39.3581C17.5347 40.478 16.8327 41.758 15.2883 41.598C13.3228 41.758 13.3228 39.8381 13.4612 38.7181L16.9712 23.839C17.3924 22.0791 18.3752 20.6392 20.9023 20.7992C22.7275 20.7992 23.9911 21.9192 25.2547 23.3591L28.2031 18.8793C25.5355 16.6395 22.5871 15.6795 19.2176 15.5195C8.12606 15.6795 2.22933 23.1991 0.684944 30.2409C-1.28064 36.7983 0.684943 47.3576 10.5128 47.8398H27.9223L31.8534 30.0809H19.7792L17.8155 39.3581ZM144.876 14.5596C145.017 14.3996 145.017 14.2396 145.017 14.0796C144.734 12.3197 144.734 10.8798 144.593 9.27991H144.734L144.034 8L134.627 15.1996C135.189 17.1194 136.312 19.1993 137.014 21.1192L144.876 14.5596ZM144.034 40.1581C144.734 39.1959 145.576 38.3982 146.423 37.436L147.265 36.6383L148.248 35.8383L149.231 35.0384L150.354 34.0784L151.337 33.4385L152.6 32.6385L153.86 31.8408L155.266 31.2008L155.406 31.0408L153.16 26.4011C152.248 27.5996 151.263 28.7224 150.211 29.7609L148.246 27.521L147.123 25.9211C146.982 25.2812 146.559 24.6412 146.423 24.1612L138.418 29.7609L143.613 40.4803L144.034 40.1581ZM145.159 23.3591L137.718 23.0391C137.999 24.159 137.999 25.279 137.718 26.7189C137.718 27.1988 137.577 27.9988 137.297 28.9587L145.159 23.3591ZM144.876 16.3195L138.418 21.7592L145.576 22.0792C145.44 21.5992 145.44 21.1192 145.297 20.4792L145.015 18.5594C144.876 17.7594 144.876 16.9595 144.876 16.3195ZM201.597 33.5985H208.056L209.462 27.3588H202.861L204.126 21.4392H214.233L215.499 15.6773H192.612L185.734 47.8376H208.479L210.021 41.438H199.914L201.597 33.5985ZM184.471 15.6773L176.604 26.3989L174.081 15.6773H160.18L164.955 33.5985L161.866 47.8376H175.345L178.01 34.3984L191.348 15.6773H184.471ZM271.514 15.6773H251.858L243.998 47.8376H257.476L260.565 35.9983L263.23 47.8376H276.432L273.622 35.5183C277.557 32.9585 279.099 30.3964 279.94 24.959C280.644 16.7995 275.026 15.8395 271.514 15.6773ZM266.742 21.7592C266.602 24.319 266.042 26.7189 265.479 29.1187C265.059 30.3986 264.919 31.9985 262.953 31.9985H261.267L263.513 19.6793H265.619C266.602 19.5193 267.165 20.6392 266.742 21.7592ZM227.711 15.6773L210.581 47.8376H216.622L219.428 42.3979H228.554L229.254 47.8376H242.032L238.661 15.6773H227.711ZM222.659 36.4783L227.15 27.9988L227.854 36.4783H222.659ZM119.324 15.6773H102.335L95.1751 47.8376H111.602C123.816 47.6776 128.169 38.7181 129.432 29.9187C130.556 21.1192 125.642 16.1595 119.324 15.6773ZM117.92 24.479L114.41 39.1981C113.989 41.118 113.146 42.7179 110.9 42.8779H108.794L113.989 20.6392H116.797C117.779 20.6392 118.481 22.2391 117.92 24.479Z" fill="#F4CF53"/>
<path fill-rule="evenodd" clip-rule="evenodd" d="M165.737 13.28C165.598 12.16 164.628 11.68 163.796 11.2C165.737 10.56 167.536 10.24 167.954 9.6C168.093 9.44 167.675 8.8 166.707 7.84L176.823 7.68C180.425 7.68 184.861 3.84 185 0C184.03 0.64 182.369 1.44 180.981 1.6L159.639 1.27999C155.899 0.799992 151.74 1.28 149.661 2.72C146.473 5.44 146.747 9.6 147.303 13.76C146.885 18.4 147.855 23.68 150.352 26.24C151.74 24.64 152.848 23.04 153.262 20.48C153.68 21.28 154.371 21.76 155.202 22.08C155.758 20.48 155.758 19.04 155.758 17.44C156.172 18.08 156.729 18.72 157.56 19.04C158.251 16.8 158.392 14.88 158.392 12.96C160.886 14.4 163.656 14.56 165.737 13.28ZM152.292 17.12C151.46 16.64 150.769 15.84 149.799 15.36C149.799 14.24 149.799 12.96 149.243 12C150.213 12.8 151.322 13.12 152.571 13.28C152.292 14.56 152.153 15.84 152.292 17.12ZM158.39 8.15999C157.558 9.59999 156.588 9.92 155.062 9.6C153.678 10.56 152.292 10.4 150.769 9.44C152.153 8.8 153.401 8 153.953 6.72001C155.758 7.20001 157.14 7.2 157.697 5.12C159.081 6.08 160.467 5.92 161.854 5.28C161.439 7.04 160.33 7.99999 158.39 8.15999ZM155.897 32.64L154.65 33.44L153.403 33.92L152.294 34.72L151.324 35.5178L150.354 36.3178L149.245 37.1155L148.554 37.9156L147.584 38.5556L146.057 40.3156L144.535 42.0756C142.675 44.3543 140.78 46.5946 138.851 48.7956L137.465 50.5556L136.634 51.3533L135.802 52.1533L134.971 53.1133L134.139 53.7533L133.03 54.5533L132.199 55.3533L130.95 55.84L129.98 56.6378L128.594 57.2778L127.624 57.9178L129.01 60C142.728 53.44 143.424 42.08 157.56 34.72L156.313 32.4778L155.897 32.64ZM129.148 55.04L130.395 54.4L131.227 53.6L132.336 53.12L133.167 52.3222L134.137 51.5222L134.83 50.7244L136.493 49.2845L137.879 47.6844C139.542 45.7644 141.065 43.5244 142.728 41.6044L143.007 41.2844L137.325 29.6022C135.523 34.0844 130.95 40.8022 130.395 47.8422C127.901 50.0822 124.575 52.6422 126.654 56.3222H126.792L128.039 55.6822L129.148 55.04Z" fill="#F4CF53"/>
</svg>
