<svg width="262" height="43" viewBox="0 0 262 43" fill="none" xmlns="http://www.w3.org/2000/svg">
<path d="M72.5519 6.84331C72.4783 7.15811 69.8224 18.221 69.8224 18.221H61.3242L64.0607 6.84331H54.3371C54.3371 6.84331 46.987 37.3995 46.8511 37.9767H56.5738C56.6431 37.6608 59.7103 24.9234 59.7103 24.9234H68.205L65.072 37.9778H74.7929C74.8701 37.6574 82.1387 7.42715 82.2773 6.84331H72.5519ZM123.682 10.2247L123.234 10.65L124.152 6.84331H114.431C114.431 6.84331 107.088 37.394 106.942 37.9778H116.663C116.747 37.6552 121.187 19.1788 121.187 19.1788C121.814 16.5666 123.424 14.805 125.182 14.805H127.673C128.461 14.805 129.076 15.1466 129.453 15.7929C129.726 16.2663 129.865 16.8869 129.865 17.6081C129.865 18.1272 129.795 18.6976 129.646 19.3005C129.646 19.3005 125.732 35.5956 125.161 37.9767H134.88C134.963 37.6552 140.163 16.0341 140.163 16.0341C140.31 15.4033 140.528 14.2948 140.528 13.0278C140.528 11.7351 140.306 10.2827 139.567 9.0168C138.486 7.15141 136.575 6.21481 133.878 6.21481C128.687 6.21481 125.258 8.73102 123.682 10.2247ZM85.1822 9.08043C85.2726 9.46557 86.5856 15.2448 86.6891 15.6969C87.5487 15.2404 91.1886 13.4252 94.3409 13.4252C97.345 13.4252 99.0466 13.9387 99.6939 15.0506C100.018 15.6099 100.076 16.321 99.8605 17.2207L99.2527 19.7548L99.0738 19.6845C94.9812 17.962 91.864 18.0178 91.8359 18.0223C88.5854 18.0223 85.6594 19.0515 83.3772 21.0029C81.1984 22.8727 79.6389 25.5352 78.8732 28.7056C78.204 31.5008 78.3724 33.8876 79.3644 35.5889C80.5187 37.5681 82.7851 38.6141 85.9313 38.6141C88.9134 38.6141 92.1491 37.6396 95.0558 35.8635L95.4312 35.6335C95.4312 35.6335 94.9777 37.5335 94.8672 37.9778H104.594C104.664 37.6574 109.772 16.4549 109.772 16.4549C109.973 15.6304 110.079 14.773 110.086 13.9097C110.086 12.5545 109.783 11.3432 109.191 10.3173C107.628 7.63255 104.026 6.20923 98.7686 6.20923C92.3306 6.20923 86.2374 8.63725 85.1822 9.08043ZM92.8832 24.3965C93.6243 24.3965 96.1653 24.468 97.7274 25.4057L97.8704 25.4905L96.7784 30.0206L96.7047 30.0619C95.1523 30.9873 92.9709 31.6024 91.2658 31.6024C89.63 31.6024 88.4854 31.1168 87.9521 30.2003C87.7323 29.8159 87.6172 29.3506 87.6241 28.8752C87.6241 28.5772 87.6565 28.259 87.7364 27.9353C88.2696 25.7171 90.194 24.3965 92.8841 24.3965M161.574 6.68255C161.484 6.77967 152.258 16.024 152.258 16.024L154.52 6.68255H144.81L137.208 38.2893H146.92C147 37.9745 150.004 25.4481 150.004 25.4481C150.004 25.4481 156.984 38.0961 157.089 38.2893H167.462L158.553 22.1047C158.553 22.1047 172.507 7.4584 173.253 6.68255H161.574Z" fill="white"/>
<path d="M165.618 22.4798C164.563 26.8704 164.957 30.9919 166.752 34.0629C168.768 37.5347 172.397 39.4514 176.959 39.4514C187.699 39.4514 193.758 34.1734 196.604 22.3414C197.662 17.9498 197.258 13.8349 195.472 10.7606C193.46 7.28654 189.824 5.37427 185.263 5.37427C175.389 5.37427 168.228 11.6146 165.618 22.4798ZM175.125 29.4078C174.276 27.9554 174.252 25.6457 175.045 22.3481C176.003 18.3516 178.195 13.5815 183.181 13.5815C185.092 13.5815 186.369 14.1799 187.093 15.4246C187.941 16.877 187.967 19.1945 187.173 22.4843C186.212 26.4875 184.02 31.2575 179.037 31.2575C177.131 31.2575 175.846 30.6525 175.125 29.4078ZM198.023 22.4798C196.969 26.8704 197.37 30.9919 199.158 34.0629C201.173 37.5347 204.803 39.4514 209.372 39.4514C220.111 39.4514 226.171 34.1734 229.017 22.3414C230.072 17.9498 229.667 13.8349 227.88 10.7606C225.867 7.28654 222.241 5.37427 217.666 5.37427C207.798 5.37427 200.638 11.6146 198.024 22.4798M215.587 13.5815C217.497 13.5815 218.782 14.1799 219.503 15.4246C220.347 16.8814 220.38 19.1945 219.583 22.4843C218.622 26.4875 216.43 31.2575 211.444 31.2575C209.533 31.2575 208.256 30.6525 207.534 29.4078C206.688 27.9554 206.661 25.6424 207.451 22.3481C208.412 18.3516 210.604 13.5815 215.587 13.5815ZM250.955 6.40799L241.503 16.5655L243.932 6.40799H234.221C234.221 6.40799 226.64 37.931 226.501 38.5171H236.209C236.288 38.1967 239.343 25.4772 239.343 25.4772C239.343 25.4772 246.857 38.344 246.969 38.5159H257.627C257.209 37.8127 248.075 22.1896 248.075 22.1896C248.075 22.1896 261.253 7.18831 262 6.40799H250.955Z" fill="white"/>
<path d="M49.9241 1.51735L49.8121 0H42.6588C43.4827 12.4005 37.6544 26.2333 29.3581 29.5285C29.352 29.5307 29.3459 29.5307 29.3405 29.5352C29.2949 29.552 29.1898 29.5609 29.1799 29.3787C29.1763 29.3473 29.179 29.3151 29.1876 29.2859C29.1963 29.2567 29.2105 29.2318 29.2286 29.2143H29.2225C36.1421 22.4315 39.7911 11.5059 39.1629 0H32.1595C32.4618 10.1105 27.845 19.3074 20.7785 23.0454C20.7328 23.0566 20.63 23.0655 20.6186 22.8888C20.6117 22.8218 20.6414 22.7692 20.6696 22.7368H20.6665C25.7692 17.5999 28.8448 9.96285 28.6605 0H21.6603C21.591 11.9297 14.2914 20.2533 0 20.2533C0.203315 20.4177 0.402822 20.5854 0.601568 20.7498C9.90075 28.2124 14.7498 32.8003 21.6115 41.0109C22.6685 42.3438 24.1374 43.0706 25.6169 42.9946C44.1361 41.0959 50.8028 17.2399 49.9241 1.51735Z" fill="#F25C19"/>
</svg>
