<svg width="262" height="64" viewBox="0 0 262 64" fill="none" xmlns="http://www.w3.org/2000/svg">
<g clip-path="url(#clip0_115_6)">
<path d="M122.366 64.0001H262V33.0161L122.366 64.0001Z" fill="#FBB830"/>
<path d="M246.11 23.2923V0H235.35V30.5439H240.73H246.11H262.25V23.2923H246.11Z" fill="#706F71"/>
<path d="M180.922 10.827V0H191.683V30.5439H180.922V18.4637H167.785V30.5439H157.025V0H167.785V12.1592C167.785 12.1592 168.7 10.827 170.303 10.827C171.314 10.827 180.922 10.827 180.922 10.827Z" fill="#706F71"/>
<path d="M42.9156 0H32.6558C32.6558 0 30.1534 0.63119 28.1211 5.30648L22.7718 18.4637L15.2646 0H2.62751L0 30.5439H9.75933L10.8854 11.2121L18.6428 30.5439H22.7718H26.9007L34.6581 11.2121L35.7842 30.5439H45.5435L42.9156 0Z" fill="#706F71"/>
<path d="M71.5679 0H67.5641H63.5602C63.5602 0 61.6209 -3.27445e-06 58.4303 6.97631C57.2122 9.64014 48.0454 30.5439 48.0454 30.5439H59.9318L62.0132 24.6108H73.1145L75.1959 30.5439H87.0823C87.0823 30.5439 74.7984 2.66383 73.5802 0H71.5679ZM64.4126 17.7713L67.5636 8.7892L70.7147 17.7713H64.4126Z" fill="#706F71"/>
<path d="M217.625 0H213.621H209.617C209.617 0 207.678 -3.27445e-06 204.487 6.97631C203.269 9.64014 194.103 30.5439 194.103 30.5439H205.989L208.07 24.6108H219.172L221.253 30.5439H233.139C233.139 30.5439 220.856 2.66383 219.637 0H217.625ZM210.47 17.7713L213.621 8.7892L216.772 17.7713H210.47Z" fill="#706F71"/>
<path d="M116.513 30.5439H124.306L112.295 17.8537C112.295 17.8537 118.363 15.9584 118.363 10.2725C118.363 0.672398 107.504 0 101.498 0H98.719H96.5294H87.9587V30.5439H98.719V15.876V6.89391C98.719 6.89391 100.059 6.89391 104.313 6.89391C108.067 6.89391 109.068 9.77806 106.914 11.2121C105.764 11.9784 98.719 15.876 98.719 15.876L111.472 28.7087C112.258 29.4726 113.322 30.5439 116.513 30.5439Z" fill="#706F71"/>
<path d="M125.119 23.7868V30.5439C125.119 30.5439 140.133 30.5439 143.387 30.5439C146.64 30.5439 154.272 28.8958 154.272 22.4683C154.272 17.7919 150.55 14.6805 144.888 13.0742C139.696 11.6012 139.197 11.3712 137.506 10.6021C136.515 10.1512 136.005 7.80035 137.756 7.80035C139.508 7.80035 152.52 7.80035 152.52 7.80035V0C152.52 0 139.946 0 136.693 0C130.088 0 125.62 2.6375 125.62 7.30593C125.62 12.6622 130.562 15.2717 135.504 17.2768C140.29 19.2185 141.466 19.6425 142.636 20.161C144.262 20.882 144.575 23.8692 141.51 23.8692C138.444 23.8692 125.119 23.7868 125.119 23.7868Z" fill="#706F71"/>
</g>
<defs>
<clipPath id="clip0_115_6">
<rect width="262" height="64" fill="white"/>
</clipPath>
</defs>
</svg>
