<svg width="288" height="64" viewBox="0 0 288 64" fill="none" xmlns="http://www.w3.org/2000/svg">
<path fill-rule="evenodd" clip-rule="evenodd" d="M0 32C0 14.3288 64.4718 0 144 0C223.53 0 288 14.3288 288 32C288 49.673 223.53 64 144 64C64.4718 64 0 49.673 0 32Z" fill="#D35B2B"/>
<path fill-rule="evenodd" clip-rule="evenodd" d="M3 32.0009C3 14.8792 65.903 1 143.499 1C221.095 1 284 14.8792 284 32.0009C284 49.1226 221.095 63 143.499 63C65.903 63 3 49.1208 3 32.0009Z" fill="black"/>
<path fill-rule="evenodd" clip-rule="evenodd" d="M20 31.5C20 16.311 75.5169 4 144.001 4C212.485 4 268 16.311 268 31.5C268 46.689 212.483 59 144.001 59C75.5186 59 20 46.6871 20 31.5Z" fill="#D35B2B"/>
<path fill-rule="evenodd" clip-rule="evenodd" d="M24 31C24 16.6405 77.5025 5 143.501 5C209.498 5 263 16.6405 263 31C263 45.3595 209.498 57 143.501 57C77.5025 57 24 45.3613 24 31Z" fill="white"/>
<path fill-rule="evenodd" clip-rule="evenodd" d="M94.1231 11.5037H79.4071L74.2561 22.9762L73.0785 11.3372H57.7728L46 52.4067H61.8936L63.8066 42.929L65.4248 52.2402H75.5794L79.4055 43.2621V52.2402H104.866L106.631 47.9177H112.225L113.109 52.4067L139.712 52.3623L144.013 45.7583L146.516 52.4086H173.742L178.159 45.7583L180.808 52.5751H209.504L209.799 50.4139C209.799 50.4139 214.508 53.5725 223.487 52.9082C223.487 52.9082 236.142 52.0774 238.496 38.4436C238.496 38.4436 239.673 31.958 235.405 27.9685L241 15.8299C241 15.8299 232.904 8.84654 223.192 11.6739C223.192 11.6739 215.979 14.666 214.506 16.9938L215.094 11.8386H184.778L181.982 16.1612L180.364 11.6721H150.486L147.69 15.8281L145.925 11.5056H127.974L136.804 30.461L127.827 42.7643L122.086 11.5037H106.338L94.7127 36.7783L94.1231 11.5037Z" fill="black"/>
<path fill-rule="evenodd" clip-rule="evenodd" d="M91.9192 13.189H80.4424L72.9305 32.2538L70.8423 13.189H59.2262L49 48.9555H59.713L64.4434 29.1834L67.0855 49.0353H73.8336L82.1798 29.1834L81.416 49.0353H103.258L105.066 44.8604H114.038L114.806 49.1133H138.528L144.093 39.425H144.789L147.918 49.2711H172.611L178.526 39.5827H179.221L182.144 49.4289H194.873L186.318 30.2861L198.211 13.5844H185.761L181.586 21.4609H180.823L178.664 13.6624H166.005L173.517 30.2861L160.439 48.406L152.022 29.9705L163.848 13.5844H151.536L147.017 21.305H146.389L144.304 13.5844H131.781L139.293 30.0503L126.425 48.3281L120.234 13.4266H107.366L92.3404 46.83L91.9192 13.189ZM212.332 13.7422H200.996L196.335 49.3509H207.741L212.332 13.7422ZM233.617 24.9286L238 15.9475C238 15.9475 234.315 11.5368 223.742 13.5064C223.742 13.5064 212.96 16.343 212.819 26.6625C212.819 26.6625 211.429 33.8317 219.567 35.4078C219.567 35.4078 220.752 35.8013 222.07 36.0371C222.07 36.0371 226.036 36.4306 224.086 39.1094C224.086 39.1094 221.237 43.5219 213.932 36.982L208.992 46.752C208.992 46.752 216.297 51.9517 226.035 49.1931C226.035 49.1931 234.173 47.8528 236.33 37.6911C236.33 37.6911 237.861 31.3869 232.575 28.3944C232.575 28.3944 229.511 26.6606 225.894 26.0313C225.894 26.0313 222.626 24.3773 226.381 22.4077C226.382 22.4077 231.322 21.5408 233.617 24.9286Z" fill="#D35B2B"/>
<path fill-rule="evenodd" clip-rule="evenodd" d="M111.925 25L108 36H113L112.367 25H111.925Z" fill="black"/>
<path fill-rule="evenodd" clip-rule="evenodd" d="M165.017 17L155 30.5346L160.925 44L171.001 30.3251L165.017 17ZM198 18.2644L188.897 30.8862L194.639 43.4389L198 18.2644Z" fill="white"/>
</svg>
