<svg width="435" height="154" viewBox="0 0 435 154" fill="none" xmlns="http://www.w3.org/2000/svg">
<rect y="86.2849" width="55.8896" height="9.78488" rx="4.89244" fill="#070707"/>
<rect x="23.7109" y="147.663" width="39.1395" height="8.46812" rx="4.23406" transform="rotate(-90 23.7109 147.663)" fill="#070707"/>
<rect x="313.32" y="150.331" width="147.663" height="13.549" rx="6.7745" transform="rotate(-90 313.32 150.331)" fill="#070707"/>
<rect x="419.172" y="87.1743" width="84.5058" height="12.7022" rx="6.35109" transform="rotate(-90 419.172 87.1743)" fill="#070707"/>
<rect x="419.172" y="150.331" width="42.6977" height="12.7022" rx="6.35109" transform="rotate(-90 419.172 150.331)" fill="#070707"/>
<rect x="80.4482" y="147.663" width="39.1395" height="8.46812" rx="4.23406" transform="rotate(-90 80.4482 147.663)" fill="#070707"/>
<rect x="118.554" y="147.663" width="61.3779" height="9.31493" rx="4.65747" transform="rotate(-90 118.554 147.663)" fill="#070707"/>
<rect x="173.596" y="147.663" width="61.3779" height="8.46812" rx="4.23406" transform="rotate(-90 173.596 147.663)" fill="#070707"/>
<rect width="36.8284" height="9.25884" rx="4.62942" transform="matrix(0.703334 -0.71086 0.652204 0.758044 78.4814 113.356)" fill="#070707"/>
<rect width="21.4028" height="9.233" rx="4.6165" transform="matrix(0.678108 0.734963 -0.678108 0.734963 68.2412 84.9956)" fill="#FF271A"/>
<rect width="159.888" height="13.8542" rx="6.9271" transform="matrix(0.716154 0.697942 -0.640165 0.768237 320.495 0.889648)" fill="#070707"/>
<rect width="86.8056" height="13.8152" rx="6.90758" transform="matrix(0.716203 -0.697892 0.683257 0.730178 363.121 60.5808)" fill="#070707"/>
<rect width="27.4455" height="10.3253" rx="5.16264" transform="matrix(1 0 -0.114305 0.993446 189.264 87.3645)" fill="#070707"/>
<rect width="17.9726" height="10.3253" rx="5.16264" transform="matrix(1 0 -0.114305 0.993446 189.896 112.631)" fill="#070707"/>
<rect width="27.4455" height="10.3253" rx="5.16264" transform="matrix(1 0 -0.114305 0.993446 189.896 137.108)" fill="#070707"/>
<rect width="34.9309" height="8.85203" rx="4.42601" transform="matrix(0.533299 0.845926 -0.809857 0.586627 142.662 113.885)" fill="#070707"/>
<path d="M138.876 119.356C138.876 121.234 140.416 122.792 142.248 122.382C143.467 122.109 144.659 121.687 145.8 121.123C147.978 120.047 149.926 118.475 151.514 116.511C153.103 114.547 154.297 112.234 155.019 109.725C155.741 107.216 155.974 104.567 155.703 101.952C155.431 99.3369 154.662 96.8144 153.445 94.5501C152.228 92.2857 150.591 90.3306 148.641 88.8129C146.691 87.2952 144.473 86.2491 142.131 85.7433C140.849 85.4666 139.546 85.355 138.249 85.4081C136.44 85.4821 135.345 87.2749 135.717 89.0467C136.113 90.9299 138.033 92.0424 139.945 92.2528C140.28 92.2897 140.614 92.3439 140.946 92.4156C142.436 92.7373 143.847 93.4026 145.087 94.3679C146.327 95.3332 147.369 96.5767 148.143 98.017C148.917 99.4572 149.406 101.062 149.579 102.725C149.751 104.388 149.603 106.073 149.144 107.669C148.685 109.265 147.925 110.736 146.915 111.985C145.904 113.234 144.666 114.234 143.28 114.918C142.93 115.092 142.572 115.244 142.208 115.374C140.441 116.008 138.876 117.479 138.876 119.356Z" fill="#070707"/>
<path d="M248.963 85.6712C248.963 83.5537 247.22 81.7914 245.168 82.3139C243.175 82.8214 241.271 83.7272 239.553 84.9985C236.768 87.0598 234.597 89.9895 233.316 93.4172C232.034 96.8449 231.698 100.617 232.352 104.256C232.758 106.52 233.537 108.669 234.637 110.602C235.703 112.474 238.241 112.471 239.684 110.873C240.933 109.49 240.871 107.399 240.079 105.712C239.644 104.787 239.328 103.793 239.142 102.76C238.756 100.608 238.954 98.3783 239.712 96.3517C240.47 94.3252 241.753 92.5931 243.4 91.3745C243.981 90.9444 244.598 90.5851 245.24 90.3002C247.176 89.4417 248.963 87.7888 248.963 85.6712Z" fill="#FF271A"/>
<path d="M255.648 147.773C256.01 149.959 258.158 151.435 260.135 150.432C262.632 149.166 264.839 147.225 266.548 144.753C269.087 141.08 270.352 136.485 270.103 131.834C269.855 127.182 268.11 122.792 265.198 119.49C263.223 117.25 260.802 115.615 258.164 114.701C256.102 113.987 254.186 115.684 254.062 117.862C253.94 119.992 255.626 121.767 257.505 122.778C258.532 123.331 259.477 124.082 260.293 125.007C262.014 126.959 263.045 129.554 263.192 132.304C263.339 135.055 262.592 137.771 261.091 139.943C260.347 141.018 259.444 141.923 258.431 142.625C256.719 143.81 255.307 145.718 255.648 147.773Z" fill="#070707"/>
<path d="M236.401 137.749C234.744 138.553 233.96 140.524 234.921 142.095C236.071 143.976 237.527 145.618 239.224 146.934C240.693 148.073 242.311 148.942 244.013 149.516C246.029 150.195 247.902 148.55 248.036 146.426C248.167 144.343 246.529 142.599 244.679 141.633C244.166 141.365 243.673 141.049 243.205 140.686C242.679 140.279 242.192 139.818 241.75 139.311C240.409 137.775 238.236 136.858 236.401 137.749Z" fill="#FF271A"/>
<path d="M265.814 94.6926C267.447 93.8809 268.221 91.9346 267.294 90.3634C266.136 88.3984 264.66 86.6845 262.936 85.316C261.494 84.1713 259.909 83.2931 258.242 82.7055C256.183 81.98 254.257 83.6692 254.124 85.8482C253.993 87.9761 255.669 89.7567 257.542 90.7753C258.033 91.0423 258.506 91.3553 258.955 91.712C259.478 92.1268 259.962 92.5953 260.401 93.1099C261.747 94.684 263.959 95.6141 265.814 94.6926Z" fill="#070707"/>
<path d="M286.333 140.723C283.24 142.803 281.693 144.737 281.693 146.523C281.693 149.163 283.493 150.483 287.093 150.483C289.573 150.483 291.893 149.883 294.053 148.683C294.133 148.657 294.173 148.59 294.173 148.483C294.2 148.377 294.186 148.297 294.133 148.243L286.813 140.803C286.653 140.643 286.493 140.617 286.333 140.723ZM288.093 127.283C286.786 127.283 285.773 127.563 285.053 128.123C284.36 128.657 284.013 129.39 284.013 130.323C284.013 131.097 284.2 131.803 284.573 132.443C284.946 133.083 285.826 134.137 287.213 135.603C287.373 135.763 287.533 135.777 287.693 135.643C289.533 134.417 290.746 133.443 291.333 132.723C291.92 131.977 292.213 131.177 292.213 130.323C292.213 128.297 290.84 127.283 288.093 127.283ZM286.893 153.923C280.493 153.923 277.293 151.523 277.293 146.723C277.293 145.283 277.773 143.91 278.733 142.603C279.693 141.27 281.36 139.79 283.733 138.163C283.92 138.003 283.946 137.857 283.813 137.723L283.653 137.563C281.013 134.897 279.693 132.483 279.693 130.323C279.693 128.377 280.426 126.83 281.893 125.683C283.36 124.51 285.426 123.923 288.093 123.923C290.786 123.923 292.826 124.47 294.213 125.563C295.6 126.657 296.293 128.177 296.293 130.123C296.293 131.537 295.84 132.87 294.933 134.123C294.026 135.377 292.453 136.75 290.213 138.243C290.133 138.27 290.093 138.337 290.093 138.443C290.093 138.55 290.12 138.63 290.173 138.683L295.653 144.363C295.68 144.417 295.72 144.43 295.773 144.403C295.853 144.377 295.893 144.337 295.893 144.283V139.083C295.893 138.523 296.093 138.043 296.493 137.643C296.893 137.243 297.373 137.043 297.933 137.043C298.493 137.043 298.973 137.243 299.373 137.643C299.773 138.043 299.973 138.523 299.973 139.083V148.523C299.973 148.737 300.053 148.923 300.213 149.083L302.933 151.883C303.226 152.177 303.28 152.523 303.093 152.923C302.933 153.323 302.64 153.523 302.213 153.523H301.573C300 153.523 298.706 152.99 297.693 151.923L297.373 151.563C297.24 151.43 297.053 151.403 296.813 151.483C293.533 153.11 290.226 153.923 286.893 153.923Z" fill="url(#paint0_linear_114_12)"/>
<defs>
<linearGradient id="paint0_linear_114_12" x1="287.068" y1="108.523" x2="287.068" y2="153" gradientUnits="userSpaceOnUse">
<stop stop-color="#FF271A"/>
<stop offset="1" stop-color="#5C4745" stop-opacity="0.72"/>
</linearGradient>
</defs>
</svg>
