<svg width="102" height="15" viewBox="0 0 102 15" fill="none" xmlns="http://www.w3.org/2000/svg">
<path d="M30.3548 2.38721C30.3269 2.49702 29.323 6.35616 29.323 6.35616H26.1108L27.1452 2.38721H23.4698C23.4698 2.38721 20.6915 13.0464 20.6401 13.2477H24.3152C24.3414 13.1375 25.5008 8.69422 25.5008 8.69422H28.7117L27.5274 13.2481H31.2019C31.231 13.1363 33.9785 2.59087 34.0308 2.38721H30.3548ZM49.6813 3.56675L49.5119 3.71512L49.859 2.38721H46.1846C46.1846 2.38721 43.409 13.0444 43.3539 13.2481H47.0283C47.0598 13.1355 48.7384 6.69028 48.7384 6.69028C48.9751 5.77904 49.5838 5.16454 50.2482 5.16454H51.1898C51.4878 5.16454 51.7202 5.2837 51.8628 5.50917C51.9659 5.67428 52.0186 5.8908 52.0186 6.14236C52.0186 6.32344 51.9921 6.52244 51.9357 6.73272C51.9357 6.73272 50.4561 12.4171 50.2406 13.2477H53.914C53.9455 13.1355 55.9112 5.59329 55.9112 5.59329C55.9665 5.37326 56.0491 4.98657 56.0491 4.54458C56.0491 4.09364 55.9652 3.587 55.6857 3.1454C55.2769 2.49468 54.5549 2.16796 53.5354 2.16796C51.573 2.16796 50.2771 3.04571 49.6813 3.56675ZM35.1289 3.1676C35.163 3.30195 35.6593 5.31797 35.6985 5.47568C36.0234 5.31641 37.3992 4.68321 38.5908 4.68321C39.7263 4.68321 40.3695 4.86235 40.6141 5.25021C40.7368 5.44531 40.7587 5.69337 40.6771 6.00724L40.4474 6.89122L40.3797 6.86668C38.8328 6.26581 37.6545 6.28528 37.6439 6.28684C36.4152 6.28684 35.3092 6.64588 34.4466 7.32658C33.6231 7.97886 33.0336 8.90762 32.7442 10.0136C32.4912 10.9887 32.5548 11.8212 32.9298 12.4147C33.3661 13.1052 34.2228 13.47 35.412 13.47C36.5392 13.47 37.7623 13.1301 38.861 12.5105L39.0029 12.4303C39.0029 12.4303 38.8315 13.0931 38.7897 13.2481H42.4664C42.4926 13.1363 44.4235 5.7401 44.4235 5.7401C44.4995 5.45246 44.5394 5.15337 44.5422 4.85222C44.5422 4.37947 44.4278 3.95695 44.204 3.59907C43.6132 2.66252 42.2516 2.16602 40.2644 2.16602C37.8309 2.16602 35.5277 3.013 35.1289 3.1676ZM38.0398 8.51042C38.3199 8.51042 39.2804 8.53534 39.8708 8.86245L39.9249 8.89205L39.5121 10.4723L39.4843 10.4867C38.8974 10.8095 38.0729 11.0241 37.4284 11.0241C36.8101 11.0241 36.3774 10.8547 36.1759 10.535C36.0928 10.4009 36.0493 10.2386 36.0519 10.0728C36.0519 9.96879 36.0641 9.8578 36.0943 9.74487C36.2959 8.9711 37.0233 8.51042 38.0401 8.51042M64.0043 2.33113C63.9701 2.36501 60.4827 5.58978 60.4827 5.58978L61.3377 2.33113H57.6676L54.7939 13.3567H58.465C58.4951 13.2469 59.6307 8.87725 59.6307 8.87725C59.6307 8.87725 62.269 13.2894 62.3088 13.3567H66.2299L62.8621 7.71094C62.8621 7.71094 68.1369 2.60177 68.4187 2.33113H64.0043Z" fill="#231F20"/>
<path d="M65.5326 7.84181C65.1337 9.37339 65.2829 10.8111 65.9613 11.8824C66.7235 13.0935 68.095 13.7621 69.8193 13.7621C73.879 13.7621 76.1692 11.921 77.2451 7.79352C77.6449 6.26155 77.4924 4.82616 76.8174 3.7537C76.0568 2.54183 74.6823 1.87476 72.9583 1.87476C69.2262 1.87476 66.5192 4.0516 65.5326 7.84181ZM69.1261 10.2585C68.8052 9.75191 68.7962 8.9462 69.0959 7.79586C69.458 6.40174 70.2868 4.73776 72.1712 4.73776C72.8937 4.73776 73.3764 4.94649 73.6499 5.38069C73.9705 5.88732 73.9804 6.69575 73.6804 7.84337C73.317 9.23982 72.4885 10.9038 70.6051 10.9038C69.8843 10.9038 69.3989 10.6927 69.1261 10.2585ZM77.7815 7.84181C77.383 9.37339 77.5345 10.8111 78.2105 11.8824C78.972 13.0935 80.3442 13.7621 82.0712 13.7621C86.1305 13.7621 88.4211 11.921 89.4969 7.79352C89.8954 6.26155 89.7426 4.82616 89.0669 3.7537C88.3061 2.54183 86.9355 1.87476 85.2062 1.87476C81.4764 1.87476 78.7698 4.0516 77.7818 7.84181M84.4205 4.73776C85.1425 4.73776 85.6279 4.94649 85.9008 5.38069C86.2197 5.88888 86.2323 6.69575 85.9309 7.84337C85.5676 9.23982 84.7391 10.9038 82.8543 10.9038C82.1322 10.9038 81.6495 10.6927 81.3766 10.2585C81.0567 9.75191 81.0464 8.94503 81.3451 7.79586C81.7085 6.40174 82.537 4.73776 84.4205 4.73776ZM97.7893 2.23536L94.2163 5.77867L95.1347 2.23536H91.4639C91.4639 2.23536 88.5985 13.2317 88.5458 13.4362H92.2152C92.245 13.3244 93.4001 8.8874 93.4001 8.8874C93.4001 8.8874 96.24 13.3758 96.2825 13.4358H100.311C100.153 13.1905 96.7005 7.74056 96.7005 7.74056C96.7005 7.74056 101.682 2.50756 101.964 2.23536H97.7893Z" fill="#231F20"/>
<path d="M21.7361 0.528441L21.6874 0H18.5729C18.9316 4.31865 16.3941 9.13614 12.782 10.2838C12.7794 10.2845 12.7767 10.2845 12.7744 10.2861C12.7545 10.2919 12.7087 10.295 12.7044 10.2316C12.7029 10.2206 12.704 10.2094 12.7078 10.1993C12.7116 10.1891 12.7178 10.1804 12.7256 10.1743H12.723C15.7357 7.81212 17.3244 4.00711 17.0508 0H14.0017C14.1333 3.52112 12.1232 6.72408 9.0466 8.02591C9.02671 8.0298 8.98195 8.03292 8.97698 7.97139C8.97399 7.94803 8.98692 7.92972 8.99919 7.91843H8.99786C11.2195 6.12944 12.5585 3.46972 12.4783 0H9.43052C9.40035 4.1547 6.22225 7.05353 0 7.05353C0.0885199 7.11078 0.175382 7.16919 0.261913 7.22643C4.31062 9.82541 6.42183 11.4232 9.4093 14.2827C9.86947 14.7469 10.509 15 11.1532 14.9735C19.2161 14.3123 22.1187 6.00405 21.7361 0.528441Z" fill="#F25C19"/>
</svg>
