<svg width="514" height="172" viewBox="0 0 514 172" fill="none" xmlns="http://www.w3.org/2000/svg">
<rect y="97" width="66" height="11" rx="5.5" fill="white"/>
<rect x="28" y="166" width="44" height="10" rx="5" transform="rotate(-90 28 166)" fill="white"/>
<rect x="370" y="169" width="166" height="16" rx="8" transform="rotate(-90 370 169)" fill="white"/>
<rect x="495" y="98" width="95" height="15" rx="7.5" transform="rotate(-90 495 98)" fill="white"/>
<rect x="495" y="169" width="48" height="15" rx="7.5" transform="rotate(-90 495 169)" fill="white"/>
<rect x="95" y="166" width="44" height="10" rx="5" transform="rotate(-90 95 166)" fill="white"/>
<rect x="140" y="166" width="69" height="11" rx="5.5" transform="rotate(-90 140 166)" fill="white"/>
<rect x="205" y="166" width="69" height="10" rx="5" transform="rotate(-90 205 166)" fill="white"/>
<rect width="42.4479" height="10.6352" rx="5.31758" transform="matrix(0.72061 -0.693341 0.670515 0.741896 92.679 127.434)" fill="white"/>
<rect width="24.6262" height="10.6236" rx="5.31179" transform="matrix(0.695958 0.718082 -0.695958 0.718082 80.5862 95.5508)" fill="#FF271A"/>
<rect width="184.45" height="15.9014" rx="7.95069" transform="matrix(0.733089 0.680133 -0.658646 0.752453 378.473 1)" fill="white"/>
<rect width="100.141" height="15.9014" rx="7.95069" transform="matrix(0.733137 -0.680081 0.701001 0.713161 428.81 68.104)" fill="white"/>
<rect width="32.4104" height="11.6154" rx="5.80768" transform="matrix(1 0 -0.119991 0.992775 223.501 98.2134)" fill="white"/>
<rect width="21.2239" height="11.6154" rx="5.80768" transform="matrix(1 0 -0.119991 0.992775 224.247 126.618)" fill="white"/>
<rect width="32.4104" height="11.6154" rx="5.80768" transform="matrix(1 0 -0.119991 0.992775 224.247 154.135)" fill="white"/>
<rect width="39.8422" height="10.2833" rx="5.14167" transform="matrix(0.552142 0.83375 -0.823246 0.567685 168.469 128.028)" fill="white"/>
<path d="M164 134.178C164 136.289 165.728 138.038 167.796 137.618C169.301 137.313 170.771 136.826 172.177 136.165C174.749 134.955 177.048 133.188 178.924 130.98C180.8 128.772 182.211 126.172 183.063 123.351C183.916 120.531 184.191 117.553 183.87 114.613C183.55 111.673 182.642 108.837 181.204 106.292C179.767 103.746 177.834 101.548 175.531 99.842C173.229 98.1358 170.609 96.9599 167.843 96.3913C166.301 96.0742 164.732 95.95 163.17 96.0181C161.099 96.1084 159.84 98.1611 160.287 100.186V100.186C160.748 102.272 162.863 103.509 164.993 103.684C165.479 103.724 165.964 103.793 166.444 103.892C168.203 104.254 169.87 105.002 171.334 106.087C172.799 107.172 174.029 108.57 174.943 110.189C175.857 111.808 176.435 113.612 176.638 115.482C176.842 117.352 176.667 119.246 176.125 121.04C175.583 122.834 174.686 124.487 173.492 125.892C172.299 127.296 170.837 128.42 169.201 129.19C168.73 129.411 168.249 129.601 167.759 129.76C165.752 130.412 164 132.068 164 134.178V134.178Z" fill="white"/>
<path d="M294 96.3103C294 93.9298 292.046 91.952 289.727 92.487C287.298 93.0472 284.977 94.0829 282.889 95.554C279.6 97.8712 277.036 101.165 275.522 105.018C274.009 108.872 273.613 113.112 274.384 117.202C274.876 119.809 275.828 122.28 277.177 124.493C278.428 126.545 281.247 126.535 282.901 124.791V124.791C284.436 123.173 284.358 120.649 283.408 118.631C282.947 117.651 282.608 116.605 282.403 115.521C281.947 113.102 282.181 110.595 283.076 108.317C283.971 106.039 285.486 104.092 287.431 102.722C288.174 102.198 288.967 101.768 289.794 101.436C292.003 100.549 294 98.6908 294 96.3103V96.3103Z" fill="#FF271A"/>
<path d="M301.907 166.201C302.33 168.63 304.707 170.272 306.943 169.232C309.994 167.812 312.691 165.587 314.766 162.729C317.764 158.599 319.257 153.435 318.964 148.205C318.67 142.976 316.611 138.041 313.172 134.329C310.781 131.749 307.839 129.882 304.634 128.871C302.305 128.136 300.169 130.033 300.022 132.471V132.471C299.878 134.877 301.774 136.882 303.935 137.949C305.207 138.577 306.375 139.447 307.379 140.531C309.412 142.725 310.629 145.643 310.803 148.734C310.976 151.826 310.094 154.88 308.321 157.321C307.424 158.556 306.331 159.592 305.103 160.387C303.109 161.679 301.499 163.86 301.907 166.201V166.201Z" fill="white"/>
<path d="M279.301 154.792C277.288 155.722 276.339 158.109 277.561 159.96C278.896 161.983 280.565 163.753 282.499 165.18C284.299 166.509 286.288 167.511 288.382 168.154C290.658 168.854 292.746 167.015 292.903 164.639V164.639C293.058 162.285 291.216 160.314 289.089 159.294C288.43 158.978 287.798 158.598 287.2 158.157C286.57 157.692 285.987 157.165 285.459 156.586C283.887 154.862 281.419 153.813 279.301 154.792V154.792Z" fill="#FF271A"/>
<path d="M313.764 106.516C315.75 105.576 316.688 103.217 315.509 101.363C314.162 99.247 312.469 97.3974 310.501 95.9106C308.731 94.5733 306.78 93.5597 304.726 92.8999C302.4 92.1527 300.253 94.0408 300.096 96.479V96.479C299.941 98.883 301.827 100.896 303.982 101.972C304.615 102.288 305.224 102.666 305.8 103.101C306.425 103.574 307.004 104.109 307.53 104.697C309.108 106.464 311.622 107.529 313.764 106.516V106.516Z" fill="white"/>
<path d="M336.12 154.2C333.027 156.28 331.48 158.213 331.48 160C331.48 162.64 333.28 163.96 336.88 163.96C339.36 163.96 341.68 163.36 343.84 162.16C343.92 162.133 343.96 162.067 343.96 161.96C343.987 161.853 343.973 161.773 343.92 161.72L336.6 154.28C336.44 154.12 336.28 154.093 336.12 154.2ZM337.88 140.76C336.573 140.76 335.56 141.04 334.84 141.6C334.147 142.133 333.8 142.867 333.8 143.8C333.8 144.573 333.987 145.28 334.36 145.92C334.733 146.56 335.613 147.613 337 149.08C337.16 149.24 337.32 149.253 337.48 149.12C339.32 147.893 340.533 146.92 341.12 146.2C341.707 145.453 342 144.653 342 143.8C342 141.773 340.627 140.76 337.88 140.76ZM336.68 167.4C330.28 167.4 327.08 165 327.08 160.2C327.08 158.76 327.56 157.387 328.52 156.08C329.48 154.747 331.147 153.267 333.52 151.64C333.707 151.48 333.733 151.333 333.6 151.2L333.44 151.04C330.8 148.373 329.48 145.96 329.48 143.8C329.48 141.853 330.213 140.307 331.68 139.16C333.147 137.987 335.213 137.4 337.88 137.4C340.573 137.4 342.613 137.947 344 139.04C345.387 140.133 346.08 141.653 346.08 143.6C346.08 145.013 345.627 146.347 344.72 147.6C343.813 148.853 342.24 150.227 340 151.72C339.92 151.747 339.88 151.813 339.88 151.92C339.88 152.027 339.907 152.107 339.96 152.16L345.44 157.84C345.467 157.893 345.507 157.907 345.56 157.88C345.64 157.853 345.68 157.813 345.68 157.76V152.56C345.68 152 345.88 151.52 346.28 151.12C346.68 150.72 347.16 150.52 347.72 150.52C348.28 150.52 348.76 150.72 349.16 151.12C349.56 151.52 349.76 152 349.76 152.56V162C349.76 162.213 349.84 162.4 350 162.56L352.72 165.36C353.013 165.653 353.067 166 352.88 166.4C352.72 166.8 352.427 167 352 167H351.36C349.787 167 348.493 166.467 347.48 165.4L347.16 165.04C347.027 164.907 346.84 164.88 346.6 164.96C343.32 166.587 340.013 167.4 336.68 167.4Z" fill="url(#paint0_linear_19_2)"/>
<defs>
<linearGradient id="paint0_linear_19_2" x1="339" y1="122" x2="339" y2="172" gradientUnits="userSpaceOnUse">
<stop stop-color="#FF271A"/>
<stop offset="1" stop-color="#5C4745" stop-opacity="0.72"/>
</linearGradient>
</defs>
</svg>
